<svg xmlns="http://www.w3.org/2000/svg" viewBox="0 0 32 32" width="32" height="32" fill="none">
  <!-- Outer Pod Shell -->
  <path d="M 4,16 C 6,6 18,4 28,6 C 26,18 16,28 4,28 C 4,24 4,20 4,16 Z" 
        fill="#4caf50" stroke="#1b5e20" stroke-width="2" stroke-linejoin="round"/>
  <!-- Pod Inner Shadow -->
  <path d="M 6,17 C 8,9 18,7 26,8 C 24,18 15,26 6,26 Z" 
        fill="#388e3c" opacity="0.4"/>
  <!-- Pea 1 (Left) -->
  <circle cx="10" cy="20" r="3.5" fill="#8bc34a" stroke="#1b5e20" stroke-width="1.5"/>
  <circle cx="9" cy="19" r="1" fill="#dce775"/>
  <!-- Pea 2 (Center) -->
  <circle cx="16" cy="15" r="4" fill="#8bc34a" stroke="#1b5e20" stroke-width="1.5"/>
  <circle cx="14.8" cy="13.8" r="1.2" fill="#dce775"/>
  <!-- Pea 3 (Right) -->
  <circle cx="22" cy="10" r="3.5" fill="#8bc34a" stroke="#1b5e20" stroke-width="1.5"/>
  <circle cx="21" cy="9" r="1" fill="#dce775"/>
  <!-- Stem Leaf -->
  <path d="M 4,16 C 2,13 1,9 3,7 C 6,7 8,10 6,14 Z" 
        fill="#2e7d32" stroke="#1b5e20" stroke-width="1.5"/>
</svg>
